<?xml version="1.0" encoding="iso-8859-1"?>
<!-- Generator: Adobe Illustrator 19.0.0, SVG Export Plug-In . SVG Version: 6.00 Build 0)  -->
<svg version="1.1" id="Capa_1" xmlns="http://www.w3.org/2000/svg" xmlns:xlink="http://www.w3.org/1999/xlink" x="0px" y="0px"
fill="#f1f1f1"
	 viewBox="0 0 512 512" style="enable-background:new 0 0 512 512;" xml:space="preserve">
<g>
	<g>
		<path d="M454.751,255.938c-1.899-5.888-6.115-10.543-11.724-13.005l-71.923-31.564c-3.846-1.688-8.333,0.062-10.021,3.908v0.001
			c-1.687,3.846,0.062,8.333,3.908,10.02l71.923,31.564c3.072,1.348,4.474,4.944,3.126,8.015l-2.214,5.046
			c-1.35,3.078-4.94,4.477-8.016,3.128l-2.455-1.078c-0.022-0.01-0.043-0.023-0.065-0.033l-77.456-33.987l-52.238-22.925
			c-3.072-1.348-4.474-4.944-3.126-8.015l2.12-4.83c0.6-1.368,1.61-2.551,2.949-3.215c1.647-0.816,3.507-0.855,5.162-0.127
			l27.535,12.084c3.846,1.688,8.333-0.062,10.021-3.908v-0.001c1.688-3.846-0.062-8.333-3.908-10.02l-27.536-12.084
			c-5.608-2.46-11.885-2.412-17.503,0.173c-4.849,2.231-8.602,6.319-10.746,11.207l-1.833,4.175
			c-2.135,4.864-2.604,10.361-0.993,15.422c1.573,4.943,4.795,8.994,9.082,11.645c-5.407,44.757,0.347,90.446,16.744,132.49
			c2.215,5.678,4.676,11.411,7.32,17.044c2.019,4.295,4.121,8.488,6.247,12.457c0.878,1.644,0.534,3.142,0.252,3.887
			c-0.3,0.791-1.11,2.26-3.121,2.853c-0.666,0.197-1.382,0.244-2.065,0.115c-1.664-0.315-2.97-1.417-3.56-2.928L172.072,38.159
			C159.377,5.608,121.186-9.608,89.216,6.43C78.228,11.943,69.16,20.79,63.388,31.644c-8.347,15.698-9.371,33.708-2.991,50.069
			l4.461,11.439c1.525,3.912,5.937,5.852,9.849,4.322l32.335-12.609c0.988-0.385,1.924-0.924,2.682-1.664
			c2.282-2.226,2.896-5.474,1.812-8.253l-6.212-15.93c-1.203-3.085,0.231-6.846,3.311-8.062c1.517-0.599,3.176-0.569,4.668,0.09
			c1.478,0.653,2.611,1.835,3.194,3.327c0.055,0.14,0.11,0.284,0.16,0.455l22.915,75.827c-3.314,3.606-5.7,8.108-6.807,13.242
			c-0.785,3.642-0.79,7.43-0.044,11.08c2.318,11.322,10.773,19.203,20.748,21.664l4.647,15.385
			c-3.344,3.672-5.734,8.258-6.793,13.497c-0.734,3.63-0.704,7.397,0.081,11.016c1.96,9.041,7.897,16.246,16.119,19.854
			c1.459,0.64,2.954,1.144,4.469,1.525l4.681,15.488c-6.846,7.597-9.27,18.693-5.309,28.851c2.708,6.946,7.959,12.42,14.785,15.415
			c1.423,0.624,2.879,1.12,4.355,1.498l4.716,15.607c-6.784,7.594-9.174,18.642-5.228,28.76c2.708,6.946,7.959,12.42,14.786,15.415
			c1.382,0.606,2.797,1.094,4.23,1.467l7.315,24.202c1.215,4.021,5.46,6.296,9.481,5.08c4.021-1.215,6.296-5.46,5.08-9.481
			l-6.143-20.325c0.466-0.155,0.931-0.318,1.392-0.499c14.335-5.592,21.45-21.804,15.859-36.14v-0.001
			c-5.236-13.424-19.784-20.513-33.386-16.771l-2.387-7.903c0.431-0.145,0.86-0.299,1.286-0.466
			c6.946-2.708,12.42-7.959,15.415-14.785c2.996-6.826,3.154-14.41,0.445-21.355v-0.001c-5.224-13.391-19.713-20.478-33.286-16.797
			l-2.391-7.91c0.398-0.136,0.795-0.279,1.19-0.433c8.516-3.32,14.821-10.463,17.056-19.648c0.917-3.767,1.002-7.716,0.248-11.519
			c-1.84-9.289-7.846-16.707-16.23-20.386c-5.872-2.576-12.303-3.046-18.406-1.407l-2.392-7.921
			c0.366-0.126,0.732-0.256,1.096-0.399c14.973-5.84,22.069-23.264,15.039-38.038c-2.633-5.533-7.079-10.086-12.548-12.85
			c-6.21-3.138-13.152-3.839-19.72-2.1l-21.793-72.12c-0.153-0.514-0.337-1.039-0.558-1.607c-2.052-5.261-6.035-9.42-11.214-11.711
			c-5.212-2.304-11.007-2.433-16.314-0.361C92.219,41.032,86.8,53.381,91.058,64.302l3.543,9.086L76.267,80.54l-1.416-3.629
			c-4.381-11.231-4.434-23.805,0.386-34.855C80.028,31.074,88.82,22.624,99.984,18.27c22.974-8.963,48.955,2.441,57.915,25.416
			l138.564,355.291c1.909,4.894,5.598,8.775,10.402,10.935c4.805,2.148,10.155,2.32,15.047,0.493
			c5.391-1.997,9.652-6.224,11.691-11.597c2.041-5.38,1.656-11.376-1.06-16.458c-2.004-3.743-3.987-7.698-5.892-11.749
			c-2.498-5.323-4.824-10.741-6.916-16.105c-14.898-38.201-20.499-79.591-16.357-120.316l26.522,11.638l82.03,35.999
			c-18.669,25.488-22.123,59.936-8.125,88.803l1.931,3.979c0.999,2.067,1.921,4.178,2.738,6.275
			c12.99,33.304,3.589,71.472-23.39,94.971c-21.857,19.034-51.533,25.608-79.383,17.584c-27.848-8.021-49.479-29.372-57.863-57.114
			l-6.596-21.82c-1.215-4.021-5.46-6.296-9.481-5.08c-4.021,1.215-6.296,5.46-5.08,9.481l6.596,21.82
			c9.882,32.704,35.383,57.874,68.214,67.331c9.212,2.654,18.591,3.952,27.892,3.952c23.845,0,47.155-8.541,65.692-24.683
			c31.806-27.705,42.886-72.703,27.571-111.97c-0.961-2.465-2.043-4.945-3.22-7.379l-1.935-3.987
			c-12.068-24.885-8.387-54.798,8.921-76.027c1.924,0.55,3.877,0.822,5.812,0.822c8.199,0,16.03-4.761,19.531-12.738l2.019-4.603
			C455.919,266.547,456.39,261.018,454.751,255.938z M211.378,321.573c1.512-0.589,3.068-0.868,4.599-0.868
			c5.081,0,9.888,3.072,11.844,8.083v-0.001c2.543,6.523-0.694,13.897-7.215,16.442c-3.16,1.231-6.611,1.16-9.715-0.202
			c-3.105-1.363-5.493-3.854-6.727-7.013C201.621,331.492,204.858,324.118,211.378,321.573z M192.751,260.294
			c1.512-0.59,3.068-0.868,4.599-0.868c5.081,0,9.889,3.072,11.844,8.083c1.232,3.159,1.16,6.61-0.203,9.714
			c-1.363,3.106-3.853,5.494-7.013,6.727c-3.158,1.232-6.609,1.162-9.714-0.202c-3.105-1.363-5.493-3.854-6.727-7.013
			C182.994,270.213,186.231,262.839,192.751,260.294z M174.126,199.015c1.497-0.584,3.057-0.875,4.617-0.875
			c1.732,0,3.463,0.359,5.097,1.077c3.105,1.363,5.493,3.854,6.727,7.012v0.001c1.232,3.159,1.16,6.609-0.203,9.713
			c-1.363,3.106-3.853,5.494-7.014,6.727c-3.158,1.232-6.609,1.161-9.714-0.202c-3.105-1.363-5.493-3.854-6.727-7.014
			c-1.232-3.158-1.16-6.609,0.203-9.714C168.476,202.636,170.965,200.247,174.126,199.015z M148.489,144.462
			c1.363-3.106,3.853-5.494,7.013-6.727c1.496-0.583,3.057-0.874,4.616-0.874c1.731-0.001,3.461,0.359,5.096,1.076
			c3.105,1.363,5.493,3.854,6.727,7.013c2.543,6.523-0.694,13.897-7.214,16.442c-6.522,2.542-13.898-0.695-16.441-7.215
			C147.054,151.017,147.126,147.566,148.489,144.462z"/>
	</g>
</g>
<g>
</g>
<g>
</g>
<g>
</g>
<g>
</g>
<g>
</g>
<g>
</g>
<g>
</g>
<g>
</g>
<g>
</g>
<g>
</g>
<g>
</g>
<g>
</g>
<g>
</g>
<g>
</g>
<g>
</g>
</svg>
